<?xml version="1.0" encoding="utf-8"?>
<!-- Generator: Adobe Illustrator 18.1.1, SVG Export Plug-In . SVG Version: 6.00 Build 0)  -->
<svg version="1.1" xmlns="http://www.w3.org/2000/svg" xmlns:xlink="http://www.w3.org/1999/xlink" x="0px" y="0px"
	 viewBox="0 0 850.4 595.3" enable-background="new 0 0 850.4 595.3" xml:space="preserve">
<g id="Layer_1">
	<path fill="none" d="M943.4-2.1"/>
	<path fill="none" d="M93-2.1"/>
	<path fill="none" d="M93-2.1"/>
	<path fill="none" d="M943.4-2.1"/>
	<path fill="#E3E2E2" d="M77.2-16.9"/>
	<path fill="#E3E2E2" d="M956.6-16.9"/>
	<path fill="none" d="M77.2-16.9"/>
	<path fill="none" d="M956.6-16.9"/>
	<path fill="none" d="M93-2.1"/>
	<path fill="none" d="M943.4-2.1"/>
	<path fill="none" d="M943.4-2.1"/>
	<path fill="none" d="M93-2.1"/>
	<path fill="none" d="M93-2.1"/>
	<path fill="none" d="M943.4-2.1"/>
	<path fill="none" d="M1267.4-1.1"/>
	<path fill="none" d="M417-1.1"/>
	<path fill="none" d="M417-1.1"/>
	<path fill="none" d="M1267.4-1.1"/>
	<path fill="#E3E2E2" d="M402.2-15.9"/>
	<path fill="#E3E2E2" d="M1281.6-15.9"/>
	<path fill="none" d="M402.2-15.9"/>
	<path fill="none" d="M1281.6-15.9"/>
	<path fill="none" stroke="#94989A" stroke-miterlimit="10" d="M1281.6-15.3"/>
	<path fill="none" stroke="#94989A" stroke-miterlimit="10" d="M402.8-15.3"/>
	<path fill="none" d="M417-1.1"/>
	<path fill="none" d="M1267.4-1.1"/>
	<path fill="none" d="M1267.4-1.1"/>
	<path fill="none" d="M417-1.1"/>
	<path fill="none" d="M417-1.1"/>
	<path fill="none" d="M1267.4-1.1"/>
	<path fill="none" d="M1359.4-3.2"/>
	<path fill="none" d="M509-3.2"/>
	<path fill="none" d="M1359.4,592"/>
	<path fill="none" d="M1359.4,592"/>
	<path fill="none" d="M509-3.2"/>
	<path fill="none" d="M1359.4-3.2"/>
	<path fill="none" d="M1359.4,592"/>
	<path fill="none" d="M509-3.2"/>
	<path fill="none" d="M1359.4-3.2"/>
	<path fill="none" d="M1359.4-3.2"/>
	<path fill="none" d="M509-3.2"/>
	<path fill="none" d="M1359.4,592"/>
	<path fill="none" d="M1359.4,592"/>
	<path fill="none" d="M509-3.2"/>
	<path fill="none" d="M1359.4-3.2"/>
	<path fill="none" d="M1213.4-0.1"/>
	<path fill="none" d="M363-0.1"/>
	<path fill="none" d="M363-0.1"/>
	<path fill="none" d="M1213.4-0.1"/>
	<path fill="#E3E2E2" d="M348.2-14.9"/>
	<path fill="#E3E2E2" d="M1227.6-14.9"/>
	<path fill="none" d="M363-0.1"/>
	<path fill="none" d="M1213.4-0.1"/>
	<path fill="none" d="M1213.4-0.1"/>
	<path fill="none" d="M363-0.1"/>
	<path fill="none" d="M363-0.1"/>
	<path fill="none" d="M1213.4-0.1"/>
	<path fill="none" d="M1305.4-2.2"/>
	<path fill="none" d="M455-2.2"/>
	<path fill="none" d="M1305.4,593.1"/>
	<path fill="none" d="M1305.4,593.1"/>
	<path fill="none" d="M455-2.2"/>
	<path fill="none" d="M1305.4-2.2"/>
	<path fill="none" d="M1305.4,593.1"/>
	<path fill="none" d="M455-2.2"/>
	<path fill="none" d="M1305.4-2.2"/>
	<path fill="none" d="M1305.4-2.2"/>
	<path fill="none" d="M455-2.2"/>
	<path fill="none" d="M1305.4,593.1"/>
	<path fill="none" d="M1305.4,593.1"/>
	<path fill="none" d="M455-2.2"/>
	<path fill="none" d="M1305.4-2.2"/>
	<path fill="none" d="M1629.4-1.2"/>
	<path fill="none" d="M779-1.2"/>
	<path fill="none" d="M779-1.2"/>
	<path fill="none" d="M1629.4-1.2"/>
	<path fill="#E3E2E2" d="M764.2-16"/>
	<path fill="#E3E2E2" d="M1643.6-16"/>
	<path fill="none" d="M764.2-16"/>
	<path fill="none" d="M1643.6-16"/>
	<path fill="none" d="M779-1.2"/>
	<path fill="none" d="M1629.4-1.2"/>
	<path fill="none" d="M1629.4-1.2"/>
	<path fill="none" d="M779-1.2"/>
	<path fill="none" d="M779-1.2"/>
	<path fill="none" d="M1629.4-1.2"/>
	<path fill="none" d="M1154.4,1"/>
	<path fill="none" d="M304,1"/>
	<path fill="none" d="M304,1"/>
	<path fill="none" d="M1154.4,1"/>
	<path fill="#E3E2E2" d="M289.2-13.8"/>
	<path fill="#E3E2E2" d="M1168.6-13.8"/>
	<path fill="none" d="M289.2-13.8"/>
	<path fill="none" d="M1168.6-13.8"/>
	<path fill="none" stroke="#94989A" stroke-miterlimit="10" d="M1168.6-13.2"/>
	<path fill="none" stroke="#94989A" stroke-miterlimit="10" d="M289.8-13.2"/>
	<path fill="none" d="M304,1"/>
	<path fill="none" d="M1154.4,1"/>
	<path fill="none" d="M1154.4,1"/>
	<path fill="none" d="M304,1"/>
	<path fill="none" d="M304,1"/>
	<path fill="none" d="M1154.4,1"/>
	<path fill="none" d="M1246.4-1.1"/>
	<path fill="none" d="M396-1.1"/>
	<path fill="none" d="M396-1.1"/>
	<path fill="none" d="M1246.4-1.1"/>
	<path fill="none" d="M396-1.1"/>
	<path fill="none" d="M1246.4-1.1"/>
	<path fill="none" d="M1246.4-1.1"/>
	<path fill="none" d="M396-1.1"/>
	<path fill="none" d="M396-1.1"/>
	<path fill="none" d="M1246.4-1.1"/>
	<path fill="none" d="M1570.4-0.1"/>
	<path fill="none" d="M720-0.1"/>
	<path fill="none" d="M720-0.1"/>
	<path fill="none" d="M1570.4-0.1"/>
	<path fill="none" d="M720-0.1"/>
	<path fill="none" d="M1570.4-0.1"/>
	<path fill="none" d="M1570.4-0.1"/>
	<path fill="none" d="M720-0.1"/>
	<path fill="none" d="M720-0.1"/>
	<path fill="none" d="M1570.4-0.1"/>
	<path fill="none" d="M1662.4-2.2"/>
	<path fill="none" d="M812-2.2"/>
	<path fill="none" d="M1662.4,593"/>
	<path fill="none" d="M1662.4,593"/>
	<path fill="none" d="M812-2.2"/>
	<path fill="none" d="M1662.4-2.2"/>
	<path fill="none" d="M1662.4,593"/>
	<path fill="none" d="M812-2.2"/>
	<path fill="none" d="M1662.4-2.2"/>
	<path fill="none" d="M1662.4-2.2"/>
	<path fill="none" d="M812-2.2"/>
	<path fill="none" d="M1662.4,593"/>
	<path fill="none" d="M1662.4,593"/>
	<path fill="none" d="M812-2.2"/>
	<path fill="none" d="M1662.4-2.2"/>
	<path fill="none" d="M1516.4,0.9"/>
	<path fill="none" d="M666,0.9"/>
	<path fill="none" d="M666,0.9"/>
	<path fill="none" d="M1516.4,0.9"/>
	<path fill="none" d="M666,0.9"/>
	<path fill="none" d="M1516.4,0.9"/>
	<path fill="none" d="M1516.4,0.9"/>
	<path fill="none" d="M666,0.9"/>
	<path fill="none" d="M666,0.9"/>
	<path fill="none" d="M1516.4,0.9"/>
	<path fill="none" d="M1608.4-1.2"/>
	<path fill="none" d="M758-1.2"/>
	<path fill="none" d="M758-1.2"/>
	<path fill="none" d="M1608.4-1.2"/>
	<path fill="none" d="M758-1.2"/>
	<path fill="none" d="M1608.4-1.2"/>
	<path fill="none" d="M758-1.2"/>
	<path fill="none" d="M758-1.2"/>
</g>
<g id="fondo">
	<g opacity="0.46">
		<g>
			<defs>
				<rect id="SVGID_1_" x="280" y="-152" width="691.4" height="977.5"/>
			</defs>
			<clipPath id="SVGID_2_">
				<use xlink:href="#SVGID_1_"  overflow="visible"/>
			</clipPath>
			<path clip-path="url(#SVGID_2_)" fill-rule="evenodd" clip-rule="evenodd" fill="#E3E3E3" d="M962.4,235.6c0,1.1-0.9,2.1-2.1,2.1
				h-12.8V261h12.8c1.1,0,2.1,0.9,2.1,2.1s-0.9,2.1-2.1,2.1h-12.8V278c0,1.1-0.9,2.1-2.1,2.1c-1.1,0-2.1-0.9-2.1-2.1v-12.8h-12.2
				c-1.1,0-2.1-0.9-2.1-2.1s0.9-2.1,2.1-2.1h12.2v-23.3h-12.2c-1.1,0-2.1-0.9-2.1-2.1c0-1.1,0.9-2.1,2.1-2.1h12.2v-12.8
				c0-1.1,0.9-2.1,2.1-2.1c1.1,0,2.1,0.9,2.1,2.1v12.8h12.8C961.5,233.5,962.4,234.5,962.4,235.6z"/>
			<path clip-path="url(#SVGID_2_)" fill-rule="evenodd" clip-rule="evenodd" fill="#E3E3E3" d="M688-46.5c0,1.1-0.9,2.1-2.1,2.1
				h-12.8v23.3h12.8c1.1,0,2.1,0.9,2.1,2.1c0,1.1-0.9,2.1-2.1,2.1h-12.8v12.8c0,1.1-0.9,2.1-2.1,2.1S669-3,669-4.2v-12.8h-12.2
				c-1.1,0-2.1-0.9-2.1-2.1c0-1.1,0.9-2.1,2.1-2.1H669v-23.3h-12.2c-1.1,0-2.1-0.9-2.1-2.1c0-1.1,0.9-2.1,2.1-2.1H669v-12.8
				c0-1.1,0.9-2.1,2.1-2.1s2.1,0.9,2.1,2.1v12.8h12.8C687-48.6,688-47.7,688-46.5z"/>
			<path clip-path="url(#SVGID_2_)" fill-rule="evenodd" clip-rule="evenodd" fill="#E3E3E3" d="M688,518.3c0,1.1-0.9,2.1-2.1,2.1
				h-12.8v23.3h12.8c1.1,0,2.1,0.9,2.1,2.1s-0.9,2.1-2.1,2.1h-12.8v12.8c0,1.1-0.9,2.1-2.1,2.1s-2.1-0.9-2.1-2.1v-12.8h-12.2
				c-1.1,0-2.1-0.9-2.1-2.1s0.9-2.1,2.1-2.1H669v-23.3h-12.2c-1.1,0-2.1-0.9-2.1-2.1s0.9-2.1,2.1-2.1H669v-12.8
				c0-1.1,0.9-2.1,2.1-2.1s2.1,0.9,2.1,2.1v12.8h12.8C687,516.2,688,517.2,688,518.3z"/>
			<path clip-path="url(#SVGID_2_)" fill-rule="evenodd" clip-rule="evenodd" fill="#E3E3E3" d="M661,446.9h21.7v-21.7H661V446.9z
				 M696.2,423.2c0,1.1-0.9,2.1-2.1,2.1h-7.3v21.7h7.3c1.1,0,2.1,0.9,2.1,2.1s-0.9,2.1-2.1,2.1h-7.3v7.8c0,1.1-0.9,2.1-2.1,2.1
				c-1.1,0-2.1-0.9-2.1-2.1v-7.8l-21.7,0v7.8c0,1.1-0.9,2.1-2.1,2.1s-2.1-0.9-2.1-2.1v-7.8h-8.9c-1.1,0-2.1-0.9-2.1-2.1
				s0.9-2.1,2.1-2.1h8.9v-21.7h-8.9c-1.1,0-2.1-0.9-2.1-2.1s0.9-2.1,2.1-2.1h8.9v-7.3c0-1.1,0.9-2.1,2.1-2.1s2.1,0.9,2.1,2.1v7.3
				h21.7v-7.3c0-1.1,0.9-2.1,2.1-2.1c1.1,0,2.1,0.9,2.1,2.1v7.3h7.3C695.3,421.1,696.2,422,696.2,423.2z"/>
			<path clip-path="url(#SVGID_2_)" fill-rule="evenodd" clip-rule="evenodd" fill="#E3E3E3" d="M751.8,165.9h21.7v-21.7h-21.7
				V165.9z M787,142.1c0,1.1-0.9,2.1-2.1,2.1h-7.3v21.7h7.3c1.1,0,2.1,0.9,2.1,2.1c0,1.1-0.9,2.1-2.1,2.1h-7.3v7.8
				c0,1.1-0.9,2.1-2.1,2.1c-1.1,0-2.1-0.9-2.1-2.1v-7.8h-21.7v7.8c0,1.1-0.9,2.1-2.1,2.1s-2.1-0.9-2.1-2.1v-7.8h-8.9
				c-1.1,0-2.1-0.9-2.1-2.1c0-1.1,0.9-2.1,2.1-2.1h8.9v-21.7h-8.9c-1.1,0-2.1-0.9-2.1-2.1c0-1.1,0.9-2.1,2.1-2.1h8.9v-7.3
				c0-1.1,0.9-2.1,2.1-2.1s2.1,0.9,2.1,2.1v7.3h21.7v-7.3c0-1.1,0.9-2.1,2.1-2.1c1.1,0,2.1,0.9,2.1,2.1v7.3h7.3
				C786,140,787,141,787,142.1z"/>
			<path clip-path="url(#SVGID_2_)" fill-rule="evenodd" clip-rule="evenodd" fill="#E3E3E3" d="M661,71.3h21.7V49.6H661V71.3z
				 M696.2,47.5c0,1.1-0.9,2.1-2.1,2.1h-7.3v21.7h7.3c1.1,0,2.1,0.9,2.1,2.1c0,1.1-0.9,2.1-2.1,2.1h-7.3v7.8c0,1.1-0.9,2.1-2.1,2.1
				c-1.1,0-2.1-0.9-2.1-2.1v-7.8H661v7.8c0,1.1-0.9,2.1-2.1,2.1s-2.1-0.9-2.1-2.1v-7.8h-8.9c-1.1,0-2.1-0.9-2.1-2.1
				c0-1.1,0.9-2.1,2.1-2.1h8.9V49.6h-8.9c-1.1,0-2.1-0.9-2.1-2.1c0-1.1,0.9-2.1,2.1-2.1h8.9v-7.3c0-1.1,0.9-2.1,2.1-2.1
				s2.1,0.9,2.1,2.1v7.3h21.7v-7.3c0-1.1,0.9-2.1,2.1-2.1c1.1,0,2.1,0.9,2.1,2.1v7.3h7.3C695.3,45.4,696.2,46.4,696.2,47.5z"/>
			<path clip-path="url(#SVGID_2_)" fill-rule="evenodd" clip-rule="evenodd" fill="#E3E3E3" d="M661-116.8h21.7v-21.7H661V-116.8z
				 M696.2-140.6c0,1.1-0.9,2.1-2.1,2.1h-7.3v21.7h7.3c1.1,0,2.1,0.9,2.1,2.1c0,1.1-0.9,2.1-2.1,2.1h-7.3v7.8c0,1.1-0.9,2.1-2.1,2.1
				c-1.1,0-2.1-0.9-2.1-2.1v-7.8H661v7.8c0,1.1-0.9,2.1-2.1,2.1s-2.1-0.9-2.1-2.1v-7.8h-8.9c-1.1,0-2.1-0.9-2.1-2.1
				c0-1.1,0.9-2.1,2.1-2.1h8.9v-21.7h-8.9c-1.1,0-2.1-0.9-2.1-2.1c0-1.1,0.9-2.1,2.1-2.1h8.9v-7.3c0-1.1,0.9-2.1,2.1-2.1
				s2.1,0.9,2.1,2.1v7.3h21.7v-7.3c0-1.1,0.9-2.1,2.1-2.1c1.1,0,2.1,0.9,2.1,2.1v7.3h7.3C695.3-142.7,696.2-141.7,696.2-140.6z"/>
			<path clip-path="url(#SVGID_2_)" fill-rule="evenodd" clip-rule="evenodd" fill="#E3E3E3" d="M936,352.3h21.7v-21.7H936V352.3z
				 M971.2,328.6c0,1.1-0.9,2.1-2.1,2.1h-7.3v21.7h7.3c1.1,0,2.1,0.9,2.1,2.1s-0.9,2.1-2.1,2.1h-7.3v7.8c0,1.1-0.9,2.1-2.1,2.1
				c-1.1,0-2.1-0.9-2.1-2.1v-7.8H936v7.8c0,1.1-0.9,2.1-2.1,2.1c-1.1,0-2.1-0.9-2.1-2.1v-7.8H923c-1.1,0-2.1-0.9-2.1-2.1
				s0.9-2.1,2.1-2.1h8.9v-21.7H923c-1.1,0-2.1-0.9-2.1-2.1s0.9-2.1,2.1-2.1h8.9v-7.3c0-1.1,0.9-2.1,2.1-2.1c1.1,0,2.1,0.9,2.1,2.1
				v7.3h21.7v-7.3c0-1.1,0.9-2.1,2.1-2.1c1.1,0,2.1,0.9,2.1,2.1v7.3h7.3C970.3,326.5,971.2,327.4,971.2,328.6z"/>
			<path clip-path="url(#SVGID_2_)" fill-rule="evenodd" clip-rule="evenodd" fill="#E3E3E3" d="M751.8-22.2h21.7v-21.7h-21.7V-22.2
				z M787-46c0,1.1-0.9,2.1-2.1,2.1h-7.3v21.7h7.3c1.1,0,2.1,0.9,2.1,2.1c0,1.1-0.9,2.1-2.1,2.1h-7.3v7.8c0,1.1-0.9,2.1-2.1,2.1
				c-1.1,0-2.1-0.9-2.1-2.1V-18h-21.7v7.8c0,1.1-0.9,2.1-2.1,2.1s-2.1-0.9-2.1-2.1V-18h-8.9c-1.1,0-2.1-0.9-2.1-2.1
				c0-1.1,0.9-2.1,2.1-2.1h8.9v-21.7h-8.9c-1.1,0-2.1-0.9-2.1-2.1c0-1.1,0.9-2.1,2.1-2.1h8.9v-7.3c0-1.1,0.9-2.1,2.1-2.1
				s2.1,0.9,2.1,2.1v7.3h21.7v-7.3c0-1.1,0.9-2.1,2.1-2.1c1.1,0,2.1,0.9,2.1,2.1v7.3h7.3C786-48.1,787-47.1,787-46z"/>
			<path clip-path="url(#SVGID_2_)" fill-rule="evenodd" clip-rule="evenodd" fill="#E3E3E3" d="M844.3,60.7c0,5.2,4.2,9.3,9.3,9.3
				c5.2,0,9.3-4.2,9.3-9.3c0-5.2-4.2-9.3-9.3-9.3C848.5,51.4,844.3,55.6,844.3,60.7z M828.3,60.7c0,14,11.3,25.3,25.3,25.3
				c14,0,25.3-11.3,25.3-25.3c0-14-11.3-25.3-25.3-25.3C839.7,35.4,828.3,46.8,828.3,60.7z"/>
			<path clip-path="url(#SVGID_2_)" fill-rule="evenodd" clip-rule="evenodd" fill="#E3E3E3" d="M936.7,155.3c0,5.2,4.2,9.3,9.3,9.3
				c5.2,0,9.3-4.2,9.3-9.3s-4.2-9.3-9.3-9.3C940.9,146,936.7,150.2,936.7,155.3z M920.8,155.3c0,14,11.3,25.3,25.3,25.3
				c14,0,25.3-11.3,25.3-25.3c0-14-11.3-25.3-25.3-25.3C932.1,130,920.8,141.4,920.8,155.3z"/>
			<path clip-path="url(#SVGID_2_)" fill-rule="evenodd" clip-rule="evenodd" fill="#E3E3E3" d="M936.7-32.8c0,5.2,4.2,9.3,9.3,9.3
				c5.2,0,9.3-4.2,9.3-9.3s-4.2-9.3-9.3-9.3C940.9-42.1,936.7-37.9,936.7-32.8z M920.8-32.8c0,14,11.3,25.3,25.3,25.3
				c14,0,25.3-11.3,25.3-25.3c0-14-11.3-25.3-25.3-25.3C932.1-58.1,920.8-46.7,920.8-32.8z"/>
			<path clip-path="url(#SVGID_2_)" fill-rule="evenodd" clip-rule="evenodd" fill="#E3E3E3" d="M661.7,711.9c0,5.2,4.2,9.3,9.3,9.3
				s9.3-4.2,9.3-9.3s-4.2-9.3-9.3-9.3S661.7,706.8,661.7,711.9z M645.7,711.9c0,14,11.3,25.3,25.3,25.3s25.3-11.3,25.3-25.3
				S685,686.6,671,686.6S645.7,697.9,645.7,711.9z"/>
			<path clip-path="url(#SVGID_2_)" fill-rule="evenodd" clip-rule="evenodd" fill="#E3E3E3" d="M752.4,249.4c0,5.2,4.2,9.3,9.3,9.3
				s9.3-4.2,9.3-9.3c0-5.2-4.2-9.3-9.3-9.3S752.4,244.2,752.4,249.4z M736.5,249.4c0,14,11.3,25.3,25.3,25.3s25.3-11.3,25.3-25.3
				c0-14-11.3-25.3-25.3-25.3S736.5,235.4,736.5,249.4z"/>
			<path clip-path="url(#SVGID_2_)" fill-rule="evenodd" clip-rule="evenodd" fill="#E3E3E3" d="M661.7,341.8c0,5.2,4.2,9.3,9.3,9.3
				s9.3-4.2,9.3-9.3s-4.2-9.3-9.3-9.3S661.7,336.6,661.7,341.8z M645.7,341.8c0,14,11.3,25.3,25.3,25.3s25.3-11.3,25.3-25.3
				c0-14-11.3-25.3-25.3-25.3S645.7,327.8,645.7,341.8z"/>
			<path clip-path="url(#SVGID_2_)" fill-rule="evenodd" clip-rule="evenodd" fill="#E3E3E3" d="M840.2,157.5l-7.4,7.4
				c-1.7,1.6-6.3,7.4-1.1,13.5c1.7,1.6,6.9,4.4,11.3,1.1l9.1-9.6v-12.4H840.2z M844.5,133.5l7.5,7.4v11.7h-11.8l-10.3-9
				c-3.3-4.4-0.6-9.5,1.1-11.2C837.1,127.3,843,131.8,844.5,133.5z M855.8,140.9l7.5-7.4c1.6-1.7,7.5-6.3,13.5-1.1
				c1.7,1.6,4.4,6.8,1.1,11.2l-9.7,9h-12.4V140.9z M855.8,169.9l7.5,6.7c1.6,1.7,7.5,6.3,13.5,1.1c1.7-1.6,4.4-6.8,1.1-11.2l-9.7-9
				h-12.4V169.9z"/>
			<path clip-path="url(#SVGID_2_)" fill-rule="evenodd" clip-rule="evenodd" fill="#E3E3E3" d="M747.8,62.9l-7.4,7.4
				c-1.7,1.6-6.3,7.4-1.1,13.5c1.6,1.6,6.9,4.4,11.3,1.1l9.1-9.6V62.9H747.8z M752.1,38.9l7.5,7.4V58h-11.8l-10.3-9
				c-3.3-4.4-0.6-9.5,1.1-11.2C744.7,32.7,750.6,37.2,752.1,38.9z M763.4,46.3l7.5-7.4c1.6-1.7,7.5-6.3,13.5-1.1
				c1.7,1.6,4.4,6.8,1.1,11.2l-9.7,9h-12.4V46.3z M763.4,75.3l7.5,6.7c1.6,1.7,7.5,6.3,13.5,1.1c1.7-1.6,4.4-6.8,1.1-11.2l-9.7-9
				h-12.4V75.3z"/>
			<path clip-path="url(#SVGID_2_)" fill-rule="evenodd" clip-rule="evenodd" fill="#E3E3E3" d="M840.2-30.6l-7.4,7.4
				c-1.7,1.6-6.3,7.4-1.1,13.5c1.7,1.6,6.9,4.4,11.3,1.1l9.1-9.6v-12.4H840.2z M844.5-54.6l7.5,7.4v11.7h-11.8l-10.3-9
				c-3.3-4.4-0.6-9.5,1.1-11.2C837.1-60.8,843-56.3,844.5-54.6z M855.8-47.2l7.5-7.4c1.6-1.7,7.5-6.3,13.5-1.1
				c1.7,1.6,4.4,6.8,1.1,11.2l-9.7,9h-12.4V-47.2z M855.8-18.2l7.5,6.7c1.6,1.7,7.5,6.3,13.5,1.1c1.7-1.6,4.4-6.8,1.1-11.2l-9.7-9
				h-12.4V-18.2z"/>
			<path clip-path="url(#SVGID_2_)" fill-rule="evenodd" clip-rule="evenodd" fill="#E3E3E3" d="M657.6,619.5l-7.4,7.4
				c-1.7,1.6-6.3,7.4-1.1,13.5c1.6,1.6,6.9,4.4,11.3,1.1l9.1-9.6v-12.4H657.6z M661.9,595.5l7.5,7.4v11.7h-11.8l-10.3-9
				c-3.3-4.4-0.6-9.5,1.1-11.2C654.5,589.3,660.4,593.8,661.9,595.5z M673.2,602.9l7.5-7.4c1.6-1.7,7.5-6.3,13.5-1.1
				c1.7,1.6,4.4,6.8,1.1,11.2l-9.7,9h-12.4V602.9z M673.2,631.9l7.5,6.7c1.6,1.7,7.5,6.3,13.5,1.1c1.7-1.6,4.4-6.8,1.1-11.2l-9.7-9
				h-12.4V631.9z"/>
			<path clip-path="url(#SVGID_2_)" fill-rule="evenodd" clip-rule="evenodd" fill="#E3E3E3" d="M657.6,251.6l-7.4,7.4
				c-1.7,1.6-6.3,7.4-1.1,13.5c1.6,1.6,6.9,4.4,11.3,1.1l9.1-9.6v-12.4H657.6z M661.9,227.6l7.5,7.4v11.7h-11.8l-10.3-9
				c-3.3-4.4-0.6-9.5,1.1-11.2C654.5,221.3,660.4,225.8,661.9,227.6z M673.2,234.9l7.5-7.4c1.6-1.7,7.5-6.3,13.5-1.1
				c1.7,1.6,4.4,6.8,1.1,11.2l-9.7,9h-12.4V234.9z M673.2,263.9l7.5,6.7c1.6,1.7,7.5,6.3,13.5,1.1c1.7-1.6,4.4-6.8,1.1-11.2l-9.7-9
				h-12.4V263.9z"/>
			<path clip-path="url(#SVGID_2_)" fill-rule="evenodd" clip-rule="evenodd" fill="#E3E3E3" d="M747.8,438.6l-7.4,7.4
				c-1.7,1.6-6.3,7.4-1.1,13.5c1.6,1.6,6.9,4.4,11.3,1.1l9.1-9.6v-12.4H747.8z M752.1,414.6l7.5,7.4v11.7h-11.8l-10.3-9
				c-3.3-4.4-0.6-9.5,1.1-11.2C744.7,408.3,750.6,412.8,752.1,414.6z M763.4,421.9l7.5-7.4c1.6-1.7,7.5-6.3,13.5-1.1
				c1.7,1.6,4.4,6.8,1.1,11.2l-9.7,9h-12.4V421.9z M763.4,450.9l7.5,6.7c1.6,1.7,7.5,6.3,13.5,1.1c1.7-1.6,4.4-6.8,1.1-11.2l-9.7-9
				h-12.4V450.9z"/>
			<path clip-path="url(#SVGID_2_)" fill-rule="evenodd" clip-rule="evenodd" fill="#E3E3E3" d="M504.8,698.2c0,1.1-0.9,2.1-2.1,2.1
				H490v23.3h12.8c1.1,0,2.1,0.9,2.1,2.1c0,1.1-0.9,2.1-2.1,2.1H490v12.8c0,1.1-0.9,2.1-2.1,2.1c-1.1,0-2.1-0.9-2.1-2.1v-12.8h-12.2
				c-1.1,0-2.1-0.9-2.1-2.1c0-1.1,0.9-2.1,2.1-2.1h12.2v-23.3h-12.2c-1.1,0-2.1-0.9-2.1-2.1s0.9-2.1,2.1-2.1h12.2v-12.8
				c0-1.1,0.9-2.1,2.1-2.1c1.1,0,2.1,0.9,2.1,2.1v12.8h12.8C503.9,696.1,504.8,697,504.8,698.2z"/>
			<path clip-path="url(#SVGID_2_)" fill-rule="evenodd" clip-rule="evenodd" fill="#E3E3E3" d="M504.8,328c0,1.1-0.9,2.1-2.1,2.1
				H490v23.3h12.8c1.1,0,2.1,0.9,2.1,2.1s-0.9,2.1-2.1,2.1H490v12.8c0,1.1-0.9,2.1-2.1,2.1c-1.1,0-2.1-0.9-2.1-2.1v-12.8h-12.2
				c-1.1,0-2.1-0.9-2.1-2.1s0.9-2.1,2.1-2.1h12.2v-23.3h-12.2c-1.1,0-2.1-0.9-2.1-2.1s0.9-2.1,2.1-2.1h12.2v-12.8
				c0-1.1,0.9-2.1,2.1-2.1c1.1,0,2.1,0.9,2.1,2.1v12.8h12.8C503.9,325.9,504.8,326.9,504.8,328z"/>
			<path clip-path="url(#SVGID_2_)" fill-rule="evenodd" clip-rule="evenodd" fill="#E3E3E3" d="M596.7,235.6c0,1.1-0.9,2.1-2.1,2.1
				h-12.8V261h12.8c1.1,0,2.1,0.9,2.1,2.1s-0.9,2.1-2.1,2.1h-12.8V278c0,1.1-0.9,2.1-2.1,2.1s-2.1-0.9-2.1-2.1v-12.8h-12.2
				c-1.1,0-2.1-0.9-2.1-2.1s0.9-2.1,2.1-2.1h12.2v-23.3h-12.2c-1.1,0-2.1-0.9-2.1-2.1c0-1.1,0.9-2.1,2.1-2.1h12.2v-12.8
				c0-1.1,0.9-2.1,2.1-2.1s2.1,0.9,2.1,2.1v12.8h12.8C595.7,233.5,596.7,234.5,596.7,235.6z"/>
			<path clip-path="url(#SVGID_2_)" fill-rule="evenodd" clip-rule="evenodd" fill="#E3E3E3" d="M322.2,141.6c0,1.1-0.9,2.1-2.1,2.1
				h-12.8V167h12.8c1.1,0,2.1,0.9,2.1,2.1c0,1.1-0.9,2.1-2.1,2.1h-12.8v12.8c0,1.1-0.9,2.1-2.1,2.1c-1.1,0-2.1-0.9-2.1-2.1v-12.8
				H291c-1.1,0-2.1-0.9-2.1-2.1c0-1.1,0.9-2.1,2.1-2.1h12.2v-23.3H291c-1.1,0-2.1-0.9-2.1-2.1c0-1.1,0.9-2.1,2.1-2.1h12.2v-12.8
				c0-1.1,0.9-2.1,2.1-2.1c1.1,0,2.1,0.9,2.1,2.1v12.8h12.8C321.3,139.5,322.2,140.4,322.2,141.6z"/>
			<path clip-path="url(#SVGID_2_)" fill-rule="evenodd" clip-rule="evenodd" fill="#E3E3E3" d="M295.3,446.9H317v-21.7h-21.7V446.9
				z M330.5,423.2c0,1.1-0.9,2.1-2.1,2.1h-7.3v21.7h7.3c1.1,0,2.1,0.9,2.1,2.1s-0.9,2.1-2.1,2.1h-7.3v7.8c0,1.1-0.9,2.1-2.1,2.1
				s-2.1-0.9-2.1-2.1v-7.8l-21.7,0v7.8c0,1.1-0.9,2.1-2.1,2.1s-2.1-0.9-2.1-2.1v-7.8h-8.9c-1.1,0-2.1-0.9-2.1-2.1s0.9-2.1,2.1-2.1
				h8.9v-21.7h-8.9c-1.1,0-2.1-0.9-2.1-2.1s0.9-2.1,2.1-2.1h8.9v-7.3c0-1.1,0.9-2.1,2.1-2.1s2.1,0.9,2.1,2.1v7.3H317v-7.3
				c0-1.1,0.9-2.1,2.1-2.1s2.1,0.9,2.1,2.1v7.3h7.3C329.5,421.1,330.5,422,330.5,423.2z"/>
			<path clip-path="url(#SVGID_2_)" fill-rule="evenodd" clip-rule="evenodd" fill="#E3E3E3" d="M386,165.9h21.7v-21.7H386V165.9z
				 M421.2,142.1c0,1.1-0.9,2.1-2.1,2.1h-7.3v21.7h7.3c1.1,0,2.1,0.9,2.1,2.1c0,1.1-0.9,2.1-2.1,2.1h-7.3v7.8c0,1.1-0.9,2.1-2.1,2.1
				s-2.1-0.9-2.1-2.1v-7.8H386v7.8c0,1.1-0.9,2.1-2.1,2.1s-2.1-0.9-2.1-2.1v-7.8H373c-1.1,0-2.1-0.9-2.1-2.1c0-1.1,0.9-2.1,2.1-2.1
				h8.9v-21.7H373c-1.1,0-2.1-0.9-2.1-2.1c0-1.1,0.9-2.1,2.1-2.1h8.9v-7.3c0-1.1,0.9-2.1,2.1-2.1s2.1,0.9,2.1,2.1v7.3h21.7v-7.3
				c0-1.1,0.9-2.1,2.1-2.1s2.1,0.9,2.1,2.1v7.3h7.3C420.3,140,421.2,141,421.2,142.1z"/>
			<path clip-path="url(#SVGID_2_)" fill-rule="evenodd" clip-rule="evenodd" fill="#E3E3E3" d="M570.3,352.3H592v-21.7h-21.7V352.3
				z M605.5,328.6c0,1.1-0.9,2.1-2.1,2.1h-7.3v21.7h7.3c1.1,0,2.1,0.9,2.1,2.1s-0.9,2.1-2.1,2.1h-7.3v7.8c0,1.1-0.9,2.1-2.1,2.1
				c-1.1,0-2.1-0.9-2.1-2.1v-7.8h-21.7v7.8c0,1.1-0.9,2.1-2.1,2.1s-2.1-0.9-2.1-2.1v-7.8h-8.9c-1.1,0-2.1-0.9-2.1-2.1
				s0.9-2.1,2.1-2.1h8.9v-21.7h-8.9c-1.1,0-2.1-0.9-2.1-2.1s0.9-2.1,2.1-2.1h8.9v-7.3c0-1.1,0.9-2.1,2.1-2.1s2.1,0.9,2.1,2.1v7.3
				H592v-7.3c0-1.1,0.9-2.1,2.1-2.1c1.1,0,2.1,0.9,2.1,2.1v7.3h7.3C604.5,326.5,605.5,327.4,605.5,328.6z"/>
			<path clip-path="url(#SVGID_2_)" fill-rule="evenodd" clip-rule="evenodd" fill="#E3E3E3" d="M478.5,436.4c0,5.2,4.2,9.3,9.3,9.3
				c5.2,0,9.3-4.2,9.3-9.3c0-5.2-4.2-9.3-9.3-9.3C482.7,427,478.5,431.2,478.5,436.4z M462.6,436.4c0,14,11.3,25.3,25.3,25.3
				s25.3-11.3,25.3-25.3c0-14-11.3-25.3-25.3-25.3S462.6,422.4,462.6,436.4z"/>
			<path clip-path="url(#SVGID_2_)" fill-rule="evenodd" clip-rule="evenodd" fill="#E3E3E3" d="M570.9,532.1c0,5.2,4.2,9.3,9.3,9.3
				s9.3-4.2,9.3-9.3c0-5.2-4.2-9.3-9.3-9.3S570.9,526.9,570.9,532.1z M555,532.1c0,14,11.3,25.3,25.3,25.3s25.3-11.3,25.3-25.3
				s-11.3-25.3-25.3-25.3S555,518.1,555,532.1z"/>
			<path clip-path="url(#SVGID_2_)" fill-rule="evenodd" clip-rule="evenodd" fill="#E3E3E3" d="M478.5,60.7c0,5.2,4.2,9.3,9.3,9.3
				c5.2,0,9.3-4.2,9.3-9.3c0-5.2-4.2-9.3-9.3-9.3C482.7,51.4,478.5,55.6,478.5,60.7z M462.6,60.7c0,14,11.3,25.3,25.3,25.3
				s25.3-11.3,25.3-25.3c0-14-11.3-25.3-25.3-25.3S462.6,46.8,462.6,60.7z"/>
			<path clip-path="url(#SVGID_2_)" fill-rule="evenodd" clip-rule="evenodd" fill="#E3E3E3" d="M570.9,155.3c0,5.2,4.2,9.3,9.3,9.3
				s9.3-4.2,9.3-9.3s-4.2-9.3-9.3-9.3S570.9,150.2,570.9,155.3z M555,155.3c0,14,11.3,25.3,25.3,25.3s25.3-11.3,25.3-25.3
				c0-14-11.3-25.3-25.3-25.3S555,141.4,555,155.3z"/>
			<path clip-path="url(#SVGID_2_)" fill-rule="evenodd" clip-rule="evenodd" fill="#E3E3E3" d="M570.9-32.8c0,5.2,4.2,9.3,9.3,9.3
				s9.3-4.2,9.3-9.3s-4.2-9.3-9.3-9.3S570.9-37.9,570.9-32.8z M555-32.8c0,14,11.3,25.3,25.3,25.3s25.3-11.3,25.3-25.3
				c0-14-11.3-25.3-25.3-25.3S555-46.7,555-32.8z"/>
			<path clip-path="url(#SVGID_2_)" fill-rule="evenodd" clip-rule="evenodd" fill="#E3E3E3" d="M386.7,249.4c0,5.2,4.2,9.3,9.3,9.3
				c5.2,0,9.3-4.2,9.3-9.3c0-5.2-4.2-9.3-9.3-9.3C390.9,240,386.7,244.2,386.7,249.4z M370.7,249.4c0,14,11.3,25.3,25.3,25.3
				s25.3-11.3,25.3-25.3c0-14-11.3-25.3-25.3-25.3S370.7,235.4,370.7,249.4z"/>
			<path clip-path="url(#SVGID_2_)" fill-rule="evenodd" clip-rule="evenodd" fill="#E3E3E3" d="M296,341.8c0,5.2,4.2,9.3,9.3,9.3
				c5.2,0,9.3-4.2,9.3-9.3c0-5.2-4.2-9.3-9.3-9.3C300.1,332.4,296,336.6,296,341.8z M280,341.8c0,14,11.3,25.3,25.3,25.3
				s25.3-11.3,25.3-25.3c0-14-11.3-25.3-25.3-25.3S280,327.8,280,341.8z"/>
			<path clip-path="url(#SVGID_2_)" fill-rule="evenodd" clip-rule="evenodd" fill="#E3E3E3" d="M474.4,534.3l-7.4,7.4
				c-1.7,1.6-6.3,7.4-1.1,13.5c1.6,1.6,6.9,4.4,11.3,1.1l9.1-9.6v-12.4H474.4z M478.8,510.3l7.5,7.4v11.7h-11.8l-10.3-9
				c-3.3-4.4-0.6-9.5,1.1-11.2C471.3,504,477.2,508.5,478.8,510.3z M490.1,517.6l7.5-7.4c1.6-1.7,7.5-6.3,13.5-1.1
				c1.7,1.6,4.4,6.8,1.1,11.2l-9.7,9h-12.4V517.6z M490.1,546.6l7.5,6.7c1.6,1.7,7.5,6.3,13.5,1.1c1.7-1.6,4.4-6.8,1.1-11.2l-9.7-9
				h-12.4V546.6z"/>
			<path clip-path="url(#SVGID_2_)" fill-rule="evenodd" clip-rule="evenodd" fill="#E3E3E3" d="M474.4,157.5L467,165
				c-1.7,1.6-6.3,7.4-1.1,13.5c1.6,1.6,6.9,4.4,11.3,1.1l9.1-9.6v-12.4H474.4z M478.8,133.5l7.5,7.4v11.7h-11.8l-10.3-9
				c-3.3-4.4-0.6-9.5,1.1-11.2C471.3,127.3,477.2,131.8,478.8,133.5z M490.1,140.9l7.5-7.4c1.6-1.7,7.5-6.3,13.5-1.1
				c1.7,1.6,4.4,6.8,1.1,11.2l-9.7,9h-12.4V140.9z M490.1,169.9l7.5,6.7c1.6,1.7,7.5,6.3,13.5,1.1c1.7-1.6,4.4-6.8,1.1-11.2l-9.7-9
				h-12.4V169.9z"/>
			<path clip-path="url(#SVGID_2_)" fill-rule="evenodd" clip-rule="evenodd" fill="#E3E3E3" d="M382,62.9l-7.4,7.4
				c-1.7,1.6-6.3,7.4-1.1,13.5c1.6,1.6,6.9,4.4,11.3,1.1l9.1-9.6V62.9H382z M386.4,38.9l7.5,7.4V58H382l-10.3-9
				c-3.3-4.4-0.6-9.5,1.1-11.2C378.9,32.7,384.8,37.2,386.4,38.9z M397.7,46.3l7.5-7.4c1.6-1.7,7.5-6.3,13.5-1.1
				c1.7,1.6,4.4,6.8,1.1,11.2l-9.7,9h-12.4V46.3z M397.7,75.3l7.5,6.7c1.6,1.7,7.5,6.3,13.5,1.1c1.7-1.6,4.4-6.8,1.1-11.2l-9.7-9
				h-12.4V75.3z"/>
			<path clip-path="url(#SVGID_2_)" fill-rule="evenodd" clip-rule="evenodd" fill="#E3E3E3" d="M474.4-30.6l-7.4,7.4
				c-1.7,1.6-6.3,7.4-1.1,13.5c1.6,1.6,6.9,4.4,11.3,1.1l9.1-9.6v-12.4H474.4z M478.8-54.6l7.5,7.4v11.7h-11.8l-10.3-9
				c-3.3-4.4-0.6-9.5,1.1-11.2C471.3-60.8,477.2-56.3,478.8-54.6z M490.1-47.2l7.5-7.4c1.6-1.7,7.5-6.3,13.5-1.1
				c1.7,1.6,4.4,6.8,1.1,11.2l-9.7,9h-12.4V-47.2z M490.1-18.2l7.5,6.7c1.6,1.7,7.5,6.3,13.5,1.1c1.7-1.6,4.4-6.8,1.1-11.2l-9.7-9
				h-12.4V-18.2z"/>
			<path clip-path="url(#SVGID_2_)" fill-rule="evenodd" clip-rule="evenodd" fill="#E3E3E3" d="M291.8,251.6l-7.4,7.4
				c-1.7,1.6-6.3,7.4-1.1,13.5c1.7,1.6,6.9,4.4,11.3,1.1l9.1-9.6v-12.4H291.8z M296.2,227.6l7.5,7.4v11.7h-11.8l-10.3-9
				c-3.3-4.4-0.6-9.5,1.1-11.2C288.7,221.3,294.6,225.8,296.2,227.6z M307.5,234.9l7.5-7.4c1.6-1.7,7.5-6.3,13.5-1.1
				c1.7,1.6,4.4,6.8,1.1,11.2l-9.7,9h-12.4V234.9z M307.5,263.9l7.5,6.7c1.6,1.7,7.5,6.3,13.5,1.1c1.7-1.6,4.4-6.8,1.1-11.2l-9.7-9
				h-12.4V263.9z"/>
		</g>
	</g>
</g>
</svg>
